HIERARCHY
ROOT SpineBase
{
  OFFSET 0.000000 0.000000 0.000000
  CHANNELS 6 Xposition Yposition Zposition Zrotation Xrotation Yrotation
  JOINT SpineMid
  {
    OFFSET 0.000000 28.582740 0.000000
    CHANNELS 3 Zrotation Xrotation Yrotation
    JOINT SpineShoulder
    {
      OFFSET 0.237874 21.205987 -0.640758
      CHANNELS 3 Zrotation Xrotation Yrotation
      JOINT Neck
      {
        OFFSET 0.142007 7.001841 -0.501976
        CHANNELS 3 Zrotation Xrotation Yrotation
        JOINT Head
        {
          OFFSET 0.635029 14.521237 -0.866214
          CHANNELS 3 Zrotation Xrotation Yrotation
          End Site
          {
            OFFSET 0 0 0
          }
        }
      }
      JOINT ShoulderLeft
      {
        OFFSET -16.667046 -3.112780 -4.298738
        CHANNELS 3 Zrotation Xrotation Yrotation
        JOINT ElbowLeft
        {
          OFFSET -1.311614 -24.021258 -3.269566
          CHANNELS 3 Zrotation Xrotation Yrotation
          JOINT WristLeft
          {
            OFFSET 4.308837 -21.408599 -6.539608
            CHANNELS 3 Zrotation Xrotation Yrotation
            JOINT HandLeft
            {
              OFFSET 1.499124 -4.598383 0.546604
              CHANNELS 3 Zrotation Xrotation Yrotation
              JOINT HandTipLeft
              {
                OFFSET 0.951696 -7.070689 -0.983720
                CHANNELS 3 Zrotation Xrotation Yrotation
                End Site
                {
                  OFFSET 0 0 0
                }
              }
              JOINT ThumbLeft
              {
                OFFSET 3.635022 -0.225938 -0.142022
                CHANNELS 3 Zrotation Xrotation Yrotation
                End Site
                {
                  OFFSET 0 0 0
                }
              }
            }
          }
        }
      }
      JOINT ShoulderRight
      {
        OFFSET 16.586622 -3.535151 3.501356
        CHANNELS 3 Zrotation Xrotation Yrotation
        JOINT ElbowRight
        {
          OFFSET 3.528625 -25.606336 2.545924
          CHANNELS 3 Zrotation Xrotation Yrotation
          JOINT WristRight
          {
            OFFSET 0.826847 -19.119775 -5.319222
            CHANNELS 3 Zrotation Xrotation Yrotation
            JOINT HandRight
            {
              OFFSET -2.796960 -6.491044 -2.719662
              CHANNELS 3 Zrotation Xrotation Yrotation
              JOINT HandTipRight
              {
                OFFSET 1.319946 -5.277562 -0.151813
                CHANNELS 3 Zrotation Xrotation Yrotation
                End Site
                {
                  OFFSET 0 0 0
                }
              }
              JOINT ThumbRight
              {
                OFFSET -1.425744 1.437932 -2.441869
                CHANNELS 3 Zrotation Xrotation Yrotation
                End Site
                {
                  OFFSET 0 0 0
                }
              }
            }
          }
        }
      }
    }
  }
  JOINT HipLeft
  {
    OFFSET -6.635373 0.331387 -4.727889
    CHANNELS 3 Zrotation Xrotation Yrotation
    JOINT KneeLeft
    {
      OFFSET -6.855742 -30.923234 3.210822
      CHANNELS 3 Zrotation Xrotation Yrotation
      JOINT AnkleLeft
      {
        OFFSET -4.541410 -30.819388 3.083339
        CHANNELS 3 Zrotation Xrotation Yrotation
        JOINT FootLeft
        {
          OFFSET -1.481472 -6.240332 -6.460989
          CHANNELS 3 Zrotation Xrotation Yrotation
          End Site
          {
            OFFSET 0 0 0
          }
        }
      }
    }
  }
  JOINT HipRight
  {
    OFFSET 7.960939 0.541320 -1.842861
    CHANNELS 3 Zrotation Xrotation Yrotation
    JOINT KneeRight
    {
      OFFSET 1.781795 -32.042479 3.763984
      CHANNELS 3 Zrotation Xrotation Yrotation
      JOINT AnkleRight
      {
        OFFSET 1.628311 -29.617727 3.822535
        CHANNELS 3 Zrotation Xrotation Yrotation
        JOINT FootRight
        {
          OFFSET 1.856504 -5.578934 -6.179521
          CHANNELS 3 Zrotation Xrotation Yrotation
          End Site
          {
            OFFSET 0 0 0
          }
        }
      }
    }
  }
}
MOTION
Frames: 8
Frame Time: 0.033333
-73.084394 69.301618 398.859623 -2.196465 -0.600551 -15.124347 0.244082 -0.051860 15.057975 0.037479 -0.072187 -0.072640 -3.709322 2.219702 -0.141485 0.000000 0.000000 0.000000 -3.784860 -2.478165 0.984338 -1.026621 1.459466 0.891719 10.640162 7.835034 0.347042 -10.158443 -13.428047 -3.994773 0.000000 0.000000 0.000000 0.000000 0.000000 0.000000 -2.061511 1.526613 -0.105724 3.846332 0.361329 0.408156 -18.008714 6.077328 4.843430 5.827828 9.016488 1.945627 0.000000 0.000000 0.000000 0.000000 0.000000 0.000000 0.594322 1.353295 14.869536 0.342688 -1.892665 0.343919 -3.119617 -1.396963 4.811121 0.000000 0.000000 0.000000 1.964072 1.152340 15.093081 -1.538503 -0.099986 -0.205543 2.918996 -1.747199 -1.947759 0.000000 0.000000 0.000000
-72.942885 69.272549 398.816750 -2.295461 -0.659909 -15.214801 0.199801 -0.086387 15.142760 0.013096 -0.083900 -0.079842 -4.691525 2.780261 -0.153951 0.000000 0.000000 0.000000 -3.865488 -2.376043 1.032893 -1.218734 1.250519 0.954962 11.751451 8.052667 0.255616 -10.465122 -14.530254 -4.332924 0.000000 0.000000 0.000000 0.000000 0.000000 0.000000 -2.536480 1.427737 -0.176682 4.776474 0.993807 0.435186 -19.420261 6.218142 5.083141 6.932175 6.006451 0.957344 0.000000 0.000000 0.000000 0.000000 0.000000 0.000000 0.514095 1.413197 14.940991 0.423949 -1.963492 0.362817 -2.751044 -1.169320 4.467634 0.000000 0.000000 0.000000 2.042276 1.238606 15.179502 -1.656241 -0.083423 -0.219719 3.240318 -1.793299 -2.167386 0.000000 0.000000 0.000000
-72.823225 69.257747 398.769687 -2.398194 -0.674621 -15.250267 0.157814 -0.114406 15.172930 0.055992 -0.068234 -0.083135 -3.839404 3.268047 -0.121067 0.000000 0.000000 0.000000 -3.773494 -2.374798 1.042809 -1.370728 1.116734 0.971837 11.915319 7.918871 0.132308 -10.306337 -14.051550 -4.151081 0.000000 0.000000 0.000000 0.000000 0.000000 0.000000 -2.690522 1.180072 -0.237771 5.181443 1.575137 0.457359 -22.675476 7.217886 5.967358 9.806419 3.605192 0.312680 0.000000 0.000000 0.000000 0.000000 0.000000 0.000000 0.498097 1.400469 14.969443 0.498461 -1.967131 0.368912 -2.430547 -0.849303 4.110424 0.000000 0.000000 0.000000 1.255794 1.257904 15.142787 -0.949005 -0.325927 -0.157434 3.567073 -1.790033 -2.353548 0.000000 0.000000 0.000000
-72.712587 69.263487 398.726132 -2.392167 -0.672251 -15.120307 0.255324 -0.090026 15.045703 0.156270 -0.030251 -0.072235 -2.413999 3.626551 -0.099853 0.000000 0.000000 0.000000 -3.994554 -2.450483 1.028760 -0.998980 1.155739 0.845445 10.189319 8.679812 0.416252 -10.173344 -13.186151 -3.987378 0.000000 0.000000 0.000000 0.000000 0.000000 0.000000 -2.616873 0.932290 -0.267154 4.862716 1.450178 0.446343 -25.576359 11.133661 6.577969 12.497514 -1.626609 0.568877 0.000000 0.000000 0.000000 0.000000 0.000000 0.000000 0.393446 1.404113 14.824330 0.569004 -2.065174 0.392368 -1.803162 -0.313594 3.361856 0.000000 0.000000 0.000000 1.096789 1.180385 14.994309 -0.907889 -0.332082 -0.154593 3.769894 -1.950370 -2.485190 0.000000 0.000000 0.000000
-72.633821 69.296744 398.685822 -2.407835 -0.656778 -14.671907 0.166127 -0.122793 14.594517 0.114919 -0.011081 -0.079550 0.849556 3.780730 -0.031750 0.000000 0.000000 0.000000 -3.178401 -2.043872 0.951587 -0.916952 0.725756 0.686465 6.861660 9.006506 0.679783 -6.906376 -12.223601 -3.356587 0.000000 0.000000 0.000000 0.000000 0.000000 0.000000 -1.928659 0.241874 -0.328479 3.765641 2.106232 0.624757 -23.784469 10.310280 6.095488 11.498614 0.318820 0.827158 0.000000 0.000000 0.000000 0.000000 0.000000 0.000000 0.313161 1.504399 14.341387 0.665174 -2.296410 0.445821 -0.721031 0.442991 2.033403 0.000000 0.000000 0.000000 1.056530 1.050609 14.530274 -0.997678 -0.243876 -0.160636 4.206265 -2.016105 -2.762602 0.000000 0.000000 0.000000
-72.592390 69.344439 398.638563 -1.974824 -0.587105 -13.629279 0.603662 0.137868 13.580847 0.439296 0.095075 -0.022762 3.337300 4.095036 -0.058465 0.000000 0.000000 0.000000 -4.765455 -2.296019 0.889819 -0.065987 0.989532 0.544118 2.720657 9.938687 1.140704 -3.490545 -12.284609 -2.983921 0.000000 0.000000 0.000000 0.000000 0.000000 0.000000 -2.128052 -0.177158 -0.336982 1.986510 1.965094 0.747928 -19.743307 7.630568 5.248934 7.374753 2.959261 0.226231 0.000000 0.000000 0.000000 0.000000 0.000000 0.000000 -0.005269 1.544906 13.273337 0.527348 -2.591548 0.485934 -0.768908 0.898914 2.023828 0.000000 0.000000 0.000000 0.678432 0.500559 13.462632 -0.983280 0.175009 -0.125449 4.203021 -2.211414 -2.726212 0.000000 0.000000 0.000000
-72.580090 69.392804 398.593410 -1.235107 -0.485774 -12.233697 1.104215 0.736346 12.221365 -0.000000 0.000000 0.000000 7.234237 4.674604 -0.068455 0.000000 0.000000 0.000000 -5.541677 -1.974868 0.766889 0.211481 1.129745 0.668051 -1.922093 10.976423 1.729755 1.068406 -12.286168 -2.510023 0.000000 0.000000 0.000000 0.000000 0.000000 0.000000 -1.057003 -0.305063 -0.150100 -0.896136 0.897031 0.733021 -14.377973 4.154594 4.471213 1.580779 6.947437 -0.034864 0.000000 0.000000 0.000000 0.000000 0.000000 0.000000 -0.520880 1.567811 11.851624 0.216865 -2.875455 0.506016 -0.582337 0.678086 2.009253 0.000000 0.000000 0.000000 0.133220 -0.142333 12.056763 -1.234615 0.617347 -0.118246 4.324528 -2.641687 -2.760301 0.000000 0.000000 0.000000
-72.757648 69.563461 398.657211 -0.921906 -0.596500 -9.537814 1.890219 0.730147 9.548160 0.921120 0.253716 0.100821 12.278028 6.383881 -0.365379 0.000000 0.000000 0.000000 -7.046946 -0.670200 0.547843 -0.027452 1.316640 1.048722 -7.338442 11.156872 1.906124 6.477891 -13.402341 -1.831402 0.000000 0.000000 0.000000 0.000000 0.000000 0.000000 -1.097972 0.574144 0.029584 -3.742970 -0.696538 0.578887 -9.952946 -0.464672 4.584668 -5.472418 10.193668 -0.823509 0.000000 0.000000 0.000000 0.000000 0.000000 0.000000 -0.193154 2.416798 9.078117 -0.643747 -3.491901 0.532503 -0.032844 0.484446 1.660436 0.000000 0.000000 0.000000 0.270772 -0.376167 9.389053 -1.852769 0.846999 -0.164775 4.276708 -2.763531 -2.549028 0.000000 0.000000 0.000000
